<svg width="111" height="40" viewBox="0 0 111 40" fill="none" xmlns="http://www.w3.org/2000/svg">
<path d="M97.0274 38.9387C97.0274 39.2103 96.8073 39.4304 96.5357 39.4304H96.3862C96.1147 39.4304 95.8945 39.2103 95.8945 38.9387V23.165C95.8945 22.8935 96.1147 22.6733 96.3862 22.6733H96.6998C96.8982 22.6733 97.0772 22.7926 97.1535 22.9757L102.992 36.9718C103.161 37.3752 103.732 37.3749 103.9 36.9712L109.717 22.9763C109.793 22.7929 109.972 22.6733 110.171 22.6733H110.508C110.779 22.6733 111 22.8935 111 23.165V38.9387C111 39.2103 110.779 39.4304 110.508 39.4304H110.358C110.087 39.4304 109.867 39.2103 109.867 38.9387V30.2494C109.867 29.3542 109.872 28.6003 109.881 27.9523C109.889 27.3964 109.063 27.2162 108.85 27.7299L104.139 39.1266C104.063 39.3105 103.884 39.4304 103.685 39.4304H103.209C103.01 39.4304 102.831 39.3108 102.755 39.1274L98.1831 28.123C97.9661 27.6006 97.009 27.8088 97.016 28.3744C97.0231 28.9446 97.0274 29.5729 97.0274 30.2494V38.9387Z" fill="#484848"/>
<path d="M79.8047 33.7425V23.165C79.8047 22.8935 80.0248 22.6733 80.2964 22.6733H80.4459C80.7174 22.6733 80.9376 22.8935 80.9376 23.165V33.7189C80.9376 36.8815 82.6605 38.6044 85.8231 38.6044C88.9149 38.6044 90.6378 36.8579 90.6378 33.7189V23.165C90.6378 22.8935 90.8579 22.6733 91.1295 22.6733H91.279C91.5505 22.6733 91.7707 22.8935 91.7707 23.165V33.7425C91.7707 37.4715 89.5521 39.7136 85.8231 39.7136C82.0468 39.7136 79.8047 37.4951 79.8047 33.7425Z" fill="#484848"/>
<path d="M75.1919 22.6733C75.4635 22.6733 75.6836 22.8935 75.6836 23.165V38.9387C75.6836 39.2103 75.4635 39.4304 75.1919 39.4304H75.0425C74.7709 39.4304 74.5508 39.2103 74.5508 38.9387V23.165C74.5508 22.8935 74.7709 22.6733 75.0425 22.6733H75.1919Z" fill="#484848"/>
<path d="M60.8907 38.9387C60.8907 39.2103 60.6705 39.4304 60.399 39.4304H60.2495C59.978 39.4304 59.7578 39.2103 59.7578 38.9387V23.165C59.7578 22.8935 59.978 22.6733 60.2495 22.6733H65.9414C69.1276 22.6733 71.1337 24.5143 71.1337 27.37C71.1337 29.5902 70.0139 31.231 68.1408 31.8735C67.8349 31.9785 67.6667 32.3265 67.8131 32.6149L70.9125 38.716C71.0786 39.0431 70.841 39.4304 70.4741 39.4304H70.3034C70.1179 39.4304 69.9481 39.326 69.8645 39.1603L66.479 32.4548C66.3954 32.2892 66.2256 32.1848 66.0401 32.1848H61.3824C61.1108 32.1848 60.8907 32.4049 60.8907 32.6765V38.9387ZM61.3824 23.7118C61.1108 23.7118 60.8907 23.9319 60.8907 24.2035V30.6546C60.8907 30.9261 61.1108 31.1463 61.3824 31.1463H65.9886C68.514 31.1463 69.9773 29.7302 69.9773 27.4172C69.9773 25.0335 68.396 23.7118 65.9414 23.7118H61.3824Z" fill="#484848"/>
<path d="M56.2053 38.9387C56.2053 39.2103 55.9851 39.4304 55.7136 39.4304H46.8315C46.56 39.4304 46.3398 39.2103 46.3398 38.9387V23.165C46.3398 22.8935 46.56 22.6733 46.8315 22.6733H55.69C55.9615 22.6733 56.1817 22.8935 56.1817 23.165V23.2201C56.1817 23.4917 55.9615 23.7118 55.69 23.7118H47.9644C47.6929 23.7118 47.4727 23.9319 47.4727 24.2035V30.0174C47.4727 30.2889 47.6929 30.509 47.9644 30.509H54.9111C55.1827 30.509 55.4028 30.7292 55.4028 31.0007V31.0558C55.4028 31.3274 55.1827 31.5475 54.9111 31.5475H47.9644C47.6929 31.5475 47.4727 31.7677 47.4727 32.0392V37.9003C47.4727 38.1718 47.6929 38.392 47.9644 38.392H55.7136C55.9851 38.392 56.2053 38.6121 56.2053 38.8837V38.9387Z" fill="#484848"/>
<path d="M32.8198 23.7118C32.5483 23.7118 32.3281 23.4917 32.3281 23.2201V23.165C32.3281 22.8935 32.5483 22.6733 32.8198 22.6733H43.4956C43.7671 22.6733 43.9873 22.8935 43.9873 23.165V23.2201C43.9873 23.4917 43.7671 23.7118 43.4956 23.7118H39.2158C38.9443 23.7118 38.7241 23.9319 38.7241 24.2035V38.9387C38.7241 39.2103 38.504 39.4304 38.2324 39.4304H38.083C37.8114 39.4304 37.5913 39.2103 37.5913 38.9387V24.2035C37.5913 23.9319 37.3711 23.7118 37.0996 23.7118H32.8198Z" fill="#484848"/>
<path d="M2.66412 38.9387C2.66412 39.2103 2.44398 39.4304 2.17243 39.4304H2.02295C1.75139 39.4304 1.53125 39.2103 1.53125 38.9387V23.165C1.53125 22.8935 1.75139 22.6733 2.02295 22.6733H2.33648C2.5349 22.6733 2.71388 22.7926 2.79027 22.9757L8.62911 36.9718C8.79743 37.3752 9.36915 37.3749 9.53694 36.9712L15.3538 22.9763C15.4301 22.7929 15.6092 22.6733 15.8079 22.6733H16.1445C16.4161 22.6733 16.6362 22.8935 16.6362 23.165V38.9387C16.6362 39.2103 16.4161 39.4304 16.1445 39.4304H15.9951C15.7235 39.4304 15.5034 39.2103 15.5034 38.9387V30.2494C15.5034 29.3542 15.5084 28.6003 15.5177 27.9523C15.5256 27.3964 14.6995 27.2162 14.4871 27.7299L9.77579 39.1266C9.69976 39.3105 9.52038 39.4304 9.32139 39.4304H8.84547C8.64679 39.4304 8.46763 39.3108 8.3914 39.1274L3.81979 28.123C3.60278 27.6006 2.64571 27.8088 2.65276 28.3744C2.65987 28.9446 2.66412 29.5729 2.66412 30.2494V38.9387Z" fill="#484848"/>
<path d="M89.4197 9.03922C89.4197 14.3732 85.9031 18.0786 80.8287 18.0786C75.778 18.0786 72.3086 14.3968 72.3086 9.06282C72.3086 3.72888 75.8016 0.0234375 80.8523 0.0234375C85.9267 0.0234375 89.4197 3.70528 89.4197 9.03922ZM85.3838 9.03922C85.3838 5.71141 83.6845 3.70528 80.876 3.70528C78.0438 3.70528 76.3445 5.71141 76.3445 9.03922C76.3445 12.3906 78.0438 14.3968 80.876 14.3968C83.6845 14.3968 85.3838 12.3434 85.3838 9.03922Z" fill="#156451"/>
<path d="M69.632 0.330566V17.7957H65.8086V0.330566H69.632Z" fill="#156451"/>
<path d="M54.6999 17.7957H47.8555V0.330566H54.4639C59.5854 0.330566 63.1493 3.918 63.1493 9.11033C63.1493 14.2083 59.6798 17.7957 54.6999 17.7957ZM54.0863 3.87079H51.6789V14.2555H54.3223C57.3433 14.2555 59.1134 12.3437 59.1134 9.11033C59.1134 5.80612 57.2489 3.87079 54.0863 3.87079Z" fill="#156451"/>
<path d="M29.9453 11.2345V0.330566H33.7688V10.9749C33.7688 13.1698 34.9724 14.3735 37.1202 14.3735C39.2915 14.3735 40.5188 13.1226 40.5188 10.9749V0.330566H44.3422V11.2345C44.3422 15.3883 41.5101 18.0789 37.1202 18.0789C32.7539 18.0789 29.9453 15.4119 29.9453 11.2345Z" fill="#156451"/>
<path d="M14.0352 3.87079V0.330566H27.7712V3.87079H22.8149V17.7957H18.9915V3.87079H14.0352Z" fill="#156451"/>
<path d="M0.259617 5.40475C0.259617 2.24214 2.92659 0 6.67923 0C10.4319 0 12.792 2.07693 12.792 5.38115H8.99218C8.99218 4.15387 8.07172 3.39862 6.63203 3.39862C5.07433 3.39862 4.08306 4.10667 4.08306 5.26314C4.08306 6.32521 4.6259 6.84444 5.85318 7.10406L8.47295 7.6469C11.5883 8.28414 13.0752 9.77103 13.0752 12.5324C13.0752 15.9074 10.4319 18.1024 6.41961 18.1024C2.52536 18.1024 0 16.0018 0 12.7212H3.79985C3.79985 13.9957 4.74391 14.7038 6.44322 14.7038C8.16613 14.7038 9.2518 14.0193 9.2518 12.91C9.2518 11.9424 8.80337 11.4467 7.64689 11.2107L4.97992 10.6679C1.86452 10.0306 0.259617 8.26053 0.259617 5.40475Z" fill="#156451"/>
<path d="M25.5035 23.9138C25.6646 23.4923 26.2609 23.4923 26.422 23.9137L32.0997 38.763C32.2228 39.0849 31.9851 39.4303 31.6404 39.4303H20.2851C19.9405 39.4303 19.7028 39.0849 19.8259 38.763L25.5035 23.9138Z" fill="#98ABA6"/>
</svg>
